:version 1.10
:name ASF
:units
  mass 1
  length 1
  angle deg
:documentation
  ASF file generated by Kaydara
:root
  axis xyz
  order  tx ty tz rx ry rz
  position 0 0 0
  orientation 0 0 0
:bonedata
  begin
    id 1
    name LeftUpLegDummy
    direction 1 -2.30186e-007 -8.31532e-007
    length 2.93387
    axis 0 0 0 xyz
  end
  begin
    id 2
    name LeftUpLeg
    direction -1.82929e-007 -1 -1.48925e-009
    length 17.3336
    axis -3.48766 0.00143442 -0.000521554 xyz
    dof rx ry rz
  end
  begin
    id 3
    name LeftLeg
    direction -1.82929e-007 -1 -5.23717e-011
    length 14.9995
    axis 3.68178 -0.00654042 -0.000282425 xyz
    dof rx ry rz
  end
  begin
    id 4
    name LeftFoot
    direction 8.31532e-007 -4.54534e-011 1
    length 6.74421
    axis 1.87234e-006 4.66016e-005 -5.96866e-006 xyz
    dof rx ry rz
  end
  begin
    id 5
    name LeftToes
    direction 0.00818058 -0.00485161 0.999955
    length 3.85048
    axis 1.06247e-005 4.65869e-005 -5.96999e-006 xyz
    dof rx ry rz
  end
  begin
    id 6
    name SpineDummy
    direction -5.8607e-008 0.943407 -0.331637
    length 5.93572
    axis 0 0 0 xyz
  end
  begin
    id 7
    name Spine
    direction -1.04988e-007 0.999988 0.00495137
    length 10.1015
    axis -0.001389 0.000121417 6.61666e-006 xyz
    dof rx ry rz
  end
  begin
    id 8
    name Spine1
    direction 0 0 0
    length 0
    axis -0.001389 0.00012144 6.56766e-006 xyz
    dof rx ry rz
  end
  begin
    id 9
    name RightShoulderDummy
    direction -0.98348 0.17941 -0.0240696
    length 3.59882
    axis -0.001389 0.00012144 6.56766e-006 xyz
  end
  begin
    id 10
    name RightShoulder
    direction -0.978693 0.204882 0.0135597
    length 2.70001
    axis 0.215806 0.000203631 -0.00679732 xyz
    dof rx ry rz
  end
  begin
    id 11
    name RightArm
    direction -1 3.85509e-006 8.31394e-007
    length 10.2459
    axis -23.2009 -0.134239 -0.964098 xyz
    dof rx ry rz
  end
  begin
    id 12
    name RightForeArm
    direction -1 3.85569e-006 8.3129e-007
    length 8.16799
    axis -9.92322 0.0658061 0.17887 xyz
    dof rx ry rz
  end
  begin
    id 13
    name RightHand
    direction -0.992843 -0.0414604 0.112003
    length 5.28593
    axis -0.00960638 0.00330669 -0.185225 xyz
    dof rx ry rz
  end
  begin
    id 14
    name LeftShoulder1Dummy
    direction 0.983523 0.179172 -0.0240748
    length 3.59866
    axis -0.001389 0.00012144 6.56766e-006 xyz
  end
  begin
    id 15
    name LeftShoulder1
    direction 0.978627 0.205195 0.0135605
    length 2.70019
    axis -0.001389 0.00012144 6.57583e-006 xyz
    dof rx ry rz
  end
  begin
    id 16
    name LeftArm
    direction 1 3.51895e-006 -8.60188e-007
    length 10.2459
    axis -23.1894 0.134785 0.967513 xyz
    dof rx ry rz
  end
  begin
    id 17
    name LeftForeArm
    direction 1 3.51921e-006 -7.32029e-007
    length 8.16799
    axis -9.91835 -0.0656957 -0.177789 xyz
    dof rx ry rz
  end
  begin
    id 18
    name LeftHand
    direction 0.992938 -0.0411636 0.11126
    length 5.32135
    axis -0.00960237 -0.00340661 0.185177 xyz
    dof rx ry rz
  end
  begin
    id 19
    name HEadDummy
    direction 1.01974e-006 0.999861 -0.016675
    length 2.99946
    axis -0.001389 0.00012144 6.56766e-006 xyz
  end
  begin
    id 20
    name HEad
    direction -0.0222689 0.980941 0.193023
    length 5.12695
    axis -0.001389 0.00012144 6.56766e-006 xyz
    dof rx ry rz
  end
  begin
    id 21
    name RightUpLegDummy
    direction -1 2.30186e-007 8.31532e-007
    length 2.93387
    axis 0 0 0 xyz
  end
  begin
    id 22
    name RightUpLeg
    direction -1.82966e-007 -1 1.56832e-007
    length 17.3336
    axis -3.4909 -0.000906625 0.00028951 xyz
    dof rx ry rz
  end
  begin
    id 23
    name RightLeg
    direction -1.82786e-007 -1 -1.80317e-007
    length 14.9995
    axis 3.68513 0.0193739 -0.131021 xyz
    dof rx ry rz
  end
  begin
    id 24
    name RightFoot
    direction 8.31721e-007 -4.63324e-011 1
    length 6.74421
    axis 4.81691e-005 -0.120479 -0.188785 xyz
    dof rx ry rz
  end
  begin
    id 25
    name RightToes
    direction 0.00124746 -0.014064 0.9999
    length 3.85082
    axis 0.000481921 0.542163 -0.142575 xyz
    dof rx ry rz
  end
:hierarchy
  begin
    root LeftUpLegDummy SpineDummy RightUpLegDummy
    LeftUpLegDummy LeftUpLeg
    LeftUpLeg LeftLeg
    LeftLeg LeftFoot
    LeftFoot LeftToes
    SpineDummy Spine
    Spine Spine1
    Spine1 RightShoulderDummy LeftShoulder1Dummy HEadDummy
    RightShoulderDummy RightShoulder
    RightShoulder RightArm
    RightArm RightForeArm
    RightForeArm RightHand
    LeftShoulder1Dummy LeftShoulder1
    LeftShoulder1 LeftArm
    LeftArm LeftForeArm
    LeftForeArm LeftHand
    HEadDummy HEad
    RightUpLegDummy RightUpLeg
    RightUpLeg RightLeg
    RightLeg RightFoot
    RightFoot RightToes
  end

:SAMPLES-PER-SECOND 30
:FULLY-SPECIFIED
:DEGREES
154
root  0.465461 34.234 -10.4283 -178.694 81.1599 177.159
LeftUpLeg  -7.67351 12.2985 -1.84264
LeftLeg  11.8695 10.613 1.51661
LeftFoot  -0.478896 -0.000125447 -0.0322566
LeftToes  -10.9416 7.65994e-007 1.12379e-007
Spine  2.79975 3.00039 -1.17737
Spine1  5.20904 6.5329 -2.61479
RightShoulder  0.0617816 -0.363846 -1.78418
RightArm  11.9135 16.0429 85.2489
RightForeArm  133.956 50.2336 167.447
RightHand  1.99812 -15.1484 -14.5669
LeftShoulder1  0.00650146 0.656668 -7.77261
LeftArm  -13.8735 20.3783 -67.3056
LeftForeArm  25.0952 -24.7872 -4.66341
LeftHand  0.151717 4.2912 3.71152
HEad  27.993 -11.3876 -0.744055
RightUpLeg  -6.52869 -6.93334 -5.6643
RightLeg  16.417 -13.1894 -2.94724
RightFoot  -0.538865 -0.000745026 0.219406
RightToes  -22.9969 -0.0972799 -0.199888
155
root  0.436505 34.2368 -10.5553 -177.755 82.1029 178.162
LeftUpLeg  -7.50799 12.6234 -1.89037
LeftLeg  11.7585 11.1814 1.57492
LeftFoot  -0.687277 -0.000484977 -0.0808691
LeftToes  -10.5661 7.65994e-007 1.12379e-007
Spine  2.79713 2.75667 -1.20255
Spine1  5.19748 6.04475 -2.67674
RightShoulder  0.0623227 -0.528687 -1.65812
RightArm  11.6631 15.4228 85.1129
RightForeArm  134.46 49.6876 167.684
RightHand  2.0062 -15.0251 -14.7498
LeftShoulder1  0.00692664 0.576516 -7.69572
LeftArm  -13.9991 20.3726 -67.2154
LeftForeArm  25.1279 -24.65 -4.63399
LeftHand  0.15117 4.34449 3.63768
HEad  28.3537 -12.8288 -0.701883
RightUpLeg  -6.79363 -6.705 -5.66917
RightLeg  16.5624 -12.9018 -2.91838
RightFoot  -0.218199 -0.000450777 0.141272
RightToes  -23.0485 -0.0969949 -0.199302
156
root  0.397469 34.2392 -10.6756 -176.636 83.063 179.349
LeftUpLeg  -7.32713 12.9559 -1.94296
LeftLeg  11.5762 11.7716 1.61907
LeftFoot  -0.862394 -0.000953468 -0.126699
LeftToes  -10.1541 7.65994e-007 1.12379e-007
Spine  2.79252 2.50028 -1.22318
Spine1  5.18123 5.53325 -2.73103
RightShoulder  0.0628009 -0.671798 -1.57225
RightArm  11.5656 14.935 85.1703
RightForeArm  134.732 49.3236 167.84
RightHand  2.03914 -15.0359 -14.984
LeftShoulder1  0.00738129 0.455359 -7.6745
LeftArm  -13.8264 20.3974 -67.0046
LeftForeArm  25.1126 -24.6027 -4.62387
LeftHand  0.153754 4.28345 3.71534
HEad  28.7122 -13.7047 -0.655499
RightUpLeg  -7.06546 -6.54567 -5.65287
RightLeg  16.663 -12.6469 -2.88496
RightFoot  0.140341 0.000390523 0.0583861
RightToes  -23.2302 -0.0966775 -0.198636
157
root  0.344971 34.2404 -10.7904 -175.368 84.0369 -179.323
LeftUpLeg  -7.1711 13.2836 -2.01373
LeftLeg  11.3766 12.3573 1.65496
LeftFoot  -1.02452 -0.00147071 -0.173226
LeftToes  -9.75597 7.65994e-007 1.12379e-007
Spine  2.79818 2.26322 -1.23921
Spine1  5.1867 5.05982 -2.77464
RightShoulder  0.063223 -0.812859 -1.53102
RightArm  11.5863 14.6187 85.3609
RightForeArm  134.574 49.1603 167.91
RightHand  2.03857 -14.9161 -15.1029
LeftShoulder1  0.00794813 0.354628 -7.62364
LeftArm  -13.6896 20.2882 -66.8657
LeftForeArm  25.1971 -24.5625 -4.61526
LeftHand  0.154562 4.28559 3.72127
HEad  28.9231 -14.2197 -0.569785
RightUpLeg  -7.37595 -6.55896 -5.6204
RightLeg  16.7501 -12.4195 -2.85379
RightFoot  0.435085 0.00130718 -0.00688015
RightToes  -23.1044 -0.0962814 -0.197855
158
root  0.279753 34.2409 -10.9009 -173.777 85.0103 -177.687
LeftUpLeg  -7.05492 13.679 -2.10193
LeftLeg  11.1658 12.8728 1.67515
LeftFoot  -1.14353 -0.00210763 -0.211204
LeftToes  -9.39712 7.65994e-007 1.12379e-007
Spine  2.80686 2.06853 -1.2574
Spine1  5.19681 4.67284 -2.82111
RightShoulder  0.0636015 -0.931187 -1.57115
RightArm  11.7799 14.3185 85.6216
RightForeArm  134.912 49.0437 167.958
RightHand  2.07495 -14.8004 -15.4985
LeftShoulder1  0.00882064 0.314008 -7.55256
LeftArm  -13.6387 19.9951 -66.8052
LeftForeArm  25.2432 -24.4372 -4.58847
LeftHand  0.15524 4.29115 3.7342
HEad  29.0967 -14.4223 -0.421948
RightUpLeg  -7.73526 -6.8343 -5.54492
RightLeg  16.8157 -12.2903 -2.83934
RightFoot  0.764915 0.0030411 -0.0779566
RightToes  -23.0341 -0.0957604 -0.196921
159
root  0.205311 34.2403 -11.007 -171.618 85.9315 -175.526
LeftUpLeg  -6.95734 14.1066 -2.20815
LeftLeg  10.8423 13.3166 1.65626
LeftFoot  -1.19185 -0.00242031 -0.232703
LeftToes  -9.07721 7.65994e-007 1.12379e-007
Spine  2.8111 1.89901 -1.28307
Spine1  5.19768 4.33529 -2.87921
RightShoulder  0.0639335 -1.03942 -1.59678
RightArm  12.0132 14.0667 85.8942
RightForeArm  135.086 48.9329 168.004
RightHand  2.12006 -14.7862 -15.8546
LeftShoulder1  0.00972906 0.237662 -7.51301
LeftArm  -13.6613 19.6066 -66.7226
LeftForeArm  25.1879 -24.2909 -4.55729
LeftHand  0.154973 4.30285 3.69816
HEad  29.3502 -14.4041 -0.249096
RightUpLeg  -8.13196 -7.3111 -5.40664
RightLeg  16.8173 -12.3905 -2.86242
RightFoot  1.12531 0.00541406 -0.158817
RightToes  -22.8942 -0.0950684 -0.195799
160
root  0.118722 34.2371 -11.1082 -169.004 86.7409 -172.923
LeftUpLeg  -6.98115 14.5608 -2.34763
LeftLeg  10.6762 13.6356 1.65547
LeftFoot  -1.29145 -0.00318272 -0.26423
LeftToes  -8.75892 7.65994e-007 1.12379e-007
Spine  2.82243 1.72901 -1.32009
Spine1  5.20789 4.00175 -2.96424
RightShoulder  0.0642305 -1.13659 -1.64184
RightArm  12.3082 13.8937 86.1969
RightForeArm  135.096 48.9342 168.004
RightHand  2.13579 -14.774 -15.9868
LeftShoulder1  0.0106879 0.11101 -7.43335
LeftArm  -13.6863 19.1756 -66.6447
LeftForeArm  25.1393 -24.1854 -4.53488
LeftHand  0.153354 4.25977 3.5319
HEad  29.4517 -14.2313 -0.112797
RightUpLeg  -8.54584 -7.92487 -5.22394
RightLeg  16.7961 -12.7466 -2.93816
RightFoot  1.42604 0.00760533 -0.233437
RightToes  -22.662 -0.0941591 -0.19445
161
root  0.0197241 34.233 -11.2063 -164.658 87.4633 -168.596
LeftUpLeg  -7.13143 15.0035 -2.46746
LeftLeg  10.7038 13.8731 1.69046
LeftFoot  -1.44191 -0.00375806 -0.307066
LeftToes  -8.40853 7.65994e-007 1.12379e-007
Spine  2.85538 1.57837 -1.35487
Spine1  5.25871 3.70952 -3.04631
RightShoulder  0.0645029 -1.24226 -1.74067
RightArm  12.6259 13.7608 86.5785
RightForeArm  135.177 48.9662 167.99
RightHand  2.16421 -14.6902 -16.2957
LeftShoulder1  0.0117118 -0.0200406 -7.37032
LeftArm  -13.5567 18.6381 -66.5212
LeftForeArm  25.0988 -24.2362 -4.54567
LeftHand  0.149886 4.38744 3.38665
HEad  29.4857 -13.9273 -0.0272295
RightUpLeg  -9.03065 -8.7484 -4.95874
RightLeg  16.8513 -13.2073 -3.05545
RightFoot  1.69031 0.0100829 -0.305817
RightToes  -22.0171 -0.0929865 -0.192839
162
root  -0.0823516 34.2343 -11.3067 -154.656 88.1315 -158.612
LeftUpLeg  -7.29833 15.3915 -2.52413
LeftLeg  10.7348 14.1966 1.73681
LeftFoot  -1.57405 -0.00481125 -0.350247
LeftToes  -8.07933 7.65994e-007 1.12379e-007
Spine  2.93548 1.44396 -1.37354
Spine1  5.41513 3.43646 -3.08495
RightShoulder  0.0647528 -1.31468 -1.81199
RightArm  12.9096 13.8089 86.9445
RightForeArm  135.074 48.9649 167.991
RightHand  2.23668 -14.91 -16.593
LeftShoulder1  0.0128153 -0.214329 -7.37367
LeftArm  -13.0549 18.1331 -66.2693
LeftForeArm  24.5055 -24.9578 -4.70022
LeftHand  0.148781 4.4874 3.43751
HEad  29.3723 -13.3813 0.00720153
RightUpLeg  -9.54569 -9.62904 -4.57022
RightLeg  16.9126 -13.7722 -3.19861
RightFoot  2.07746 0.014674 -0.419888
RightToes  -21.6779 -0.0910083 -0.190174
163
root  -0.183825 34.2356 -11.4038 -135.437 88.6383 -139.383
LeftUpLeg  -7.46569 15.6254 -2.53898
LeftLeg  10.8392 14.5937 1.81102
LeftFoot  -1.73496 -0.00612726 -0.404672
LeftToes  -7.65655 7.65994e-007 1.12379e-007
Spine  2.99509 1.3506 -1.36715
Spine1  5.52947 3.24725 -3.07419
RightShoulder  0.0649872 -1.44246 -1.91715
RightArm  13.2193 13.8565 87.3192
RightForeArm  134.705 49.181 167.901
RightHand  2.21011 -14.8837 -16.4238
LeftShoulder1  0.0140128 -0.287197 -7.38308
LeftArm  -12.2396 17.7044 -66.0732
LeftForeArm  23.7676 -26.3569 -5.00517
LeftHand  0.147088 4.50609 3.39877
HEad  29.412 -12.5692 0.00468468
RightUpLeg  -9.97947 -10.3283 -4.15394
RightLeg  16.8735 -14.5208 -3.35789
RightFoot  2.55456 0.0216695 -0.574325
RightToes  -21.5686 -0.0891882 -0.187657
164
root  -0.282788 34.232 -11.5006 -103.229 88.8833 -107.125
LeftUpLeg  -7.63119 15.8855 -2.55126
LeftLeg  11.0405 14.9232 1.90359
LeftFoot  -1.95614 -0.00811134 -0.475126
LeftToes  -7.31308 7.65994e-007 1.12379e-007
Spine  3.0592 1.30414 -1.35544
Spine1  5.64911 3.15461 -3.05253
RightShoulder  0.0652291 -1.52247 -2.09468
RightArm  13.5627 13.9925 87.688
RightForeArm  134.523 49.5164 167.758
RightHand  2.22347 -14.8937 -16.5126
LeftShoulder1  0.0153191 -0.31383 -7.38502
LeftArm  -11.294 17.4877 -65.9276
LeftForeArm  22.8994 -28.908 -5.58152
LeftHand  0.149793 4.33917 3.57671
HEad  29.4812 -11.5791 0.00712208
RightUpLeg  -10.4251 -11.0923 -3.76279
RightLeg  16.9658 -15.2127 -3.53906
RightFoot  2.92827 0.0277963 -0.709755
RightToes  -21.6578 -0.0871399 -0.18479
165
root  -0.375263 34.2254 -11.5932 -73.0019 88.7419 -76.8244
LeftUpLeg  -7.78819 16.029 -2.56585
LeftLeg  11.2911 15.2422 2.01025
LeftFoot  -2.20782 -0.0107184 -0.556247
LeftToes  -6.77494 7.65994e-007 1.12379e-007
Spine  3.13426 1.29422 -1.34274
Spine1  5.78902 3.13302 -3.02316
RightShoulder  0.065478 -1.59275 -2.29605
RightArm  13.9849 14.2178 88.1097
RightForeArm  134.294 49.9027 167.591
RightHand  2.21384 -14.8462 -16.4942
LeftShoulder1  0.0167486 -0.339818 -7.36125
LeftArm  -10.1858 17.5023 -65.7257
LeftForeArm  22.2431 -32.9434 -6.55656
LeftHand  0.149604 4.18796 3.71382
HEad  29.4445 -10.3691 0.00954235
RightUpLeg  -10.9018 -12.0829 -3.38974
RightLeg  17.2105 -15.8382 -3.75068
RightFoot  3.19795 0.0329062 -0.820874
RightToes  -21.833 -0.0850505 -0.181844
166
root  -0.457333 34.2185 -11.6798 -58.5376 88.4668 -62.2751
LeftUpLeg  -7.9039 16.1081 -2.591
LeftLeg  11.4964 15.4649 2.09455
LeftFoot  -2.40082 -0.012986 -0.619734
LeftToes  -6.44989 7.65994e-007 1.12379e-007
Spine  3.20647 1.2864 -1.33552
Spine1  5.92328 3.10963 -2.99618
RightShoulder  0.0657456 -1.61913 -2.51846
RightArm  14.3763 14.4754 88.5764
RightForeArm  134.015 50.3926 167.376
RightHand  2.19538 -14.9366 -16.2545
LeftShoulder1  0.0183158 -0.301685 -7.36836
LeftArm  -8.81993 17.7051 -65.3318
LeftForeArm  21.6814 -38.4824 -8.05794
LeftHand  0.145084 3.87461 3.91027
HEad  29.4717 -8.83041 -0.0190848
RightUpLeg  -11.365 -13.2301 -3.04252
RightLeg  17.5791 -16.475 -4.00702
RightFoot  3.36282 0.0368334 -0.908915
RightToes  -21.6577 -0.0831071 -0.179093
167
root  -0.524876 34.2113 -11.7582 -55.8025 88.3163 -59.4546
LeftUpLeg  -7.97982 16.1379 -2.63444
LeftLeg  11.6259 15.5004 2.13446
LeftFoot  -2.55735 -0.0127308 -0.665973
LeftToes  -6.11268 7.65994e-007 1.12379e-007
Spine  3.27092 1.28275 -1.32862
Spine1  6.04424 3.08532 -2.95819
RightShoulder  0.0660281 -1.70182 -2.75312
RightArm  14.7667 14.7133 89.0564
RightForeArm  133.972 50.917 167.139
RightHand  2.16806 -15.0139 -15.9661
LeftShoulder1  0.0204458 -0.131898 -7.38121
LeftArm  -7.25219 17.9896 -64.7871
LeftForeArm  21.8331 -45.5072 -10.3507
LeftHand  0.139658 3.38331 4.34727
HEad  29.5465 -7.16914 -0.0391344
RightUpLeg  -11.7807 -14.4581 -2.7461
RightLeg  18.0082 -17.2048 -4.31269
RightFoot  3.4543 0.0402754 -0.9864
RightToes  -21.6363 -0.081497 -0.176809
